<mxfile host="app.diagrams.net" modified="2024-02-26T06:08:56.965Z" agent="Mozilla/5.0 (Macintosh; Intel Mac OS X 10_15_7) AppleWebKit/537.36 (KHTML, like Gecko) Chrome/122.0.0.0 Safari/537.36" version="23.0.2" etag="kjzBkog_2AU2_l3MwOd-" type="github">
  <diagram name="第 1 页" id="3t6rOChZNQwHxt-W7zfB">
    <mxGraphModel>
      <root>
        <mxCell id="0" />
        <mxCell id="1" parent="0" />
      </root>
    </mxGraphModel>
  </diagram>
</mxfile>
